<svg width="600" height="600" viewBox="0 0 600 600" fill="none" xmlns="http://www.w3.org/2000/svg">
<path d="M188 190H412" stroke="#f54a00" stroke-width="76"/>
<path d="M299.988 43H300.012C313.88 42.9956 327.79 45.6722 340.673 50.8184L341.916 51.3242C354.731 56.6292 366.557 64.4264 376.489 74.1113L377.444 75.0547C387.569 85.1769 395.705 97.3482 401.185 110.575C406.966 124.531 410 138.415 410 152V190H452.5C464.468 190 473.377 192.256 487.992 198.226L489.424 198.815H489.425C502.238 204.124 514.061 211.925 523.99 221.612L524.945 222.556C534.751 232.365 542.689 244.096 548.154 256.847L548.676 258.084C554.152 271.313 557.004 285.672 557 299.988V300.011C557.004 313.881 554.327 327.79 549.182 340.673L548.676 341.916C543.371 354.731 535.574 366.557 525.889 376.489L524.945 377.444C515.139 387.253 503.41 395.194 490.661 400.663L489.425 401.185H489.424C474.736 407.27 465.415 409.521 452.468 409.521H409.521V447.521C409.521 461.839 406.664 476.197 401.185 489.424C395.876 502.238 388.075 514.061 378.388 523.99L377.444 524.945C367.635 534.751 355.904 542.689 343.153 548.154L341.916 548.676C328.687 554.152 314.328 557.004 300.012 557H299.988C286.12 557.004 272.21 554.328 259.327 549.182L258.084 548.676C245.269 543.371 233.443 535.574 223.511 525.889L222.556 524.945C212.43 514.823 204.295 502.651 198.815 489.424C193.336 476.197 190.479 461.839 190.479 447.521V409.521H147.532C134.99 409.521 125.85 407.409 111.938 401.744L110.576 401.185H110.575C97.7617 395.876 85.9389 388.075 76.0098 378.388L75.0547 377.444C65.2486 367.635 57.3109 355.904 51.8457 343.153L51.3242 341.916C45.846 328.682 42.9926 314.325 43 300.02V299.988C42.9954 285.673 45.848 271.313 51.3242 258.084C56.6293 245.269 64.4264 233.443 74.1113 223.511L75.0547 222.556C84.8608 212.747 96.59 204.806 109.339 199.337L110.575 198.815H110.576C126.051 192.404 135.146 190 147.5 190H190V152C190 138.415 193.034 124.531 198.815 110.575C204.124 97.7616 211.925 85.9388 221.612 76.0098L222.556 75.0547C232.365 65.2486 244.096 57.3108 256.847 51.8457L258.084 51.3242C270.9 46.0192 284.775 43.1763 298.646 43.0078L299.988 43Z" stroke="#f54a00" stroke-width="76"/>
</svg>
